<svg width="50" height="50" viewBox="0 0 50 50" fill="none" xmlns="http://www.w3.org/2000/svg">
<path d="M25.8256 6.29946L42.7006 23.1745C43.8819 24.3557 43.0456 26.3751 41.375 26.3751H39.5V37.6251C39.5 39.1169 38.9073 40.5477 37.8525 41.6026C36.7976 42.6575 35.3668 43.2501 33.875 43.2501H32V30.1251C32.0001 28.6903 31.4519 27.3097 30.4676 26.2658C29.4833 25.2219 28.1373 24.5936 26.705 24.5095L26.375 24.5001H22.625C21.1331 24.5001 19.7024 25.0927 18.6475 26.1476C17.5926 27.2025 17 28.6332 17 30.1251V43.2501H15.125C13.6331 43.2501 12.2024 42.6575 11.1475 41.6026C10.0926 40.5477 9.49998 39.1169 9.49998 37.6251V26.3751H7.62498C5.95623 26.3751 5.11811 24.3557 6.29936 23.1745L23.1744 6.29946C23.526 5.94795 24.0028 5.75049 24.5 5.75049C24.9972 5.75049 25.474 5.94795 25.8256 6.29946ZM26.375 28.2501C26.8723 28.2501 27.3492 28.4476 27.7008 28.7993C28.0524 29.1509 28.25 29.6278 28.25 30.1251V43.2501H20.75V30.1251C20.75 29.6658 20.9186 29.2226 21.2238 28.8794C21.529 28.5362 21.9495 28.3169 22.4056 28.2632L22.625 28.2501H26.375Z" fill="black"/>
</svg>
