<svg width="50" height="50" viewBox="0 0 50 50" fill="none" xmlns="http://www.w3.org/2000/svg">
<path d="M18.7893 14.7075C18.8402 14.7886 18.9192 14.8481 19.0112 14.8748C19.1031 14.9014 19.2017 14.8932 19.2881 14.8518C19.3012 14.8387 20.2987 14.2875 21.4143 14.4843C21.6112 14.5237 21.8081 14.3793 21.8474 14.1825C21.8868 13.9856 21.7424 13.7887 21.5456 13.7493C20.2239 13.4973 19.0715 14.1142 18.9337 14.189L18.9206 14.1956C18.7499 14.3006 18.6843 14.5237 18.7893 14.7075ZM24.0131 21.5062C23.2912 21.5062 22.6218 21.3356 22.0443 21.0337C21.8474 20.9287 21.6506 21.1518 21.7687 21.3356C22.2412 22.0706 23.0681 22.5562 24.0131 22.5562C24.9581 22.5562 25.7849 22.0706 26.2574 21.3356C26.3756 21.1518 26.1656 20.9287 25.9818 21.0337C25.4043 21.3356 24.7349 21.5062 24.0131 21.5062ZM20.4037 15.6C20.7476 15.6 21.0652 15.705 21.3487 15.8769C21.9538 16.1145 22.4079 16.6513 22.5431 17.3062C22.5824 17.49 22.4249 17.6737 22.2281 17.6737H22.1099C22.1362 17.5687 22.1493 17.4637 22.1493 17.3456C22.1521 17.1839 22.1226 17.0233 22.0624 16.8732C22.0022 16.7231 21.9126 16.5866 21.7989 16.4716C21.6851 16.3567 21.5496 16.2656 21.4001 16.2038C21.2507 16.142 21.0904 16.1108 20.9287 16.1118C20.2462 16.1118 19.6949 16.6631 19.6949 17.3456C19.6949 17.4637 19.7081 17.5687 19.7343 17.6737H19.1437C18.8943 17.6737 18.7106 17.4375 18.7631 17.2012C18.7778 17.1422 18.7953 17.084 18.8156 17.0267L18.7762 16.9912C18.5137 16.7418 18.5268 16.2956 18.8287 16.0856C19.2618 15.7706 19.8524 15.6 20.4037 15.6Z" fill="black"/>
<path d="M20.9287 16.637C21.3225 16.637 21.6375 16.952 21.6375 17.3457C21.6375 17.4638 21.5981 17.5688 21.5456 17.6738H20.2987C20.2428 17.5659 20.2155 17.4453 20.2194 17.3238C20.2233 17.2022 20.2583 17.0837 20.321 16.9795C20.3381 17.0068 20.3609 17.03 20.3879 17.0476C20.4148 17.0652 20.4452 17.0768 20.4771 17.0815C20.5089 17.0863 20.5414 17.0841 20.5722 17.0751C20.6031 17.0661 20.6317 17.0506 20.6561 17.0295C20.6804 17.0085 20.6999 16.9824 20.7132 16.9531C20.7265 16.9238 20.7333 16.8919 20.7331 16.8598C20.7329 16.8276 20.7258 16.7958 20.7122 16.7667C20.6987 16.7375 20.6789 16.7116 20.6544 16.6908C20.7414 16.6549 20.8346 16.6367 20.9287 16.637ZM27.6356 15.6001C27.297 15.6001 26.9833 15.7025 26.7037 15.8692C26.0908 16.1028 25.6235 16.6435 25.4962 17.3063C25.4568 17.4901 25.6143 17.6738 25.8112 17.6738H25.9293C25.9031 17.5688 25.89 17.4638 25.89 17.3457C25.8637 16.6632 26.4281 16.112 27.1106 16.112C27.7931 16.112 28.3443 16.6632 28.3443 17.3457C28.3443 17.4638 28.3312 17.5688 28.305 17.6738H28.8956C29.1318 17.6738 29.3287 17.4376 29.2631 17.2013C29.249 17.1455 29.2323 17.0903 29.2132 17.036L29.2631 16.9913C29.5256 16.742 29.5125 16.2957 29.2106 16.0857C28.7775 15.7707 28.1868 15.6001 27.6356 15.6001Z" fill="black"/>
<path d="M27.1106 16.637C27.0165 16.6367 26.9233 16.6549 26.8363 16.6908C26.8602 16.7118 26.8794 16.7378 26.8925 16.7669C26.9055 16.796 26.9122 16.8275 26.9121 16.8594C26.9119 16.8913 26.9049 16.9228 26.8916 16.9517C26.8782 16.9807 26.8588 17.0064 26.8347 17.0273C26.8106 17.0481 26.7822 17.0635 26.7516 17.0725C26.721 17.0814 26.6889 17.0837 26.6573 17.0792C26.6257 17.0747 26.5955 17.0634 26.5686 17.0462C26.5418 17.029 26.5189 17.0063 26.5016 16.9795C26.4357 17.0903 26.4012 17.2169 26.4019 17.3457C26.4019 17.4638 26.4281 17.5688 26.4937 17.6738H27.7406C27.7963 17.5656 27.8233 17.4449 27.819 17.3232C27.8147 17.2015 27.7792 17.083 27.716 16.9789C27.6528 16.8749 27.564 16.7888 27.458 16.7289C27.352 16.6691 27.2324 16.6374 27.1106 16.637Z" fill="black"/>
<path d="M9.5625 43.6875H37.1066C37.8154 43.6737 38.4898 43.3794 38.9819 42.8691C39.4739 42.3588 39.7436 41.6742 39.7316 40.9654V37.444C39.7361 36.895 39.7142 36.3462 39.666 35.7994H41.5481C41.9944 35.7994 42.3619 35.4319 42.3488 34.9725V9.06378C42.3488 8.61753 41.9944 8.25003 41.535 8.25003H32.484C31.4496 7.22069 30.0698 6.61217 28.6121 6.54247C28.0661 5.84869 27.3696 5.28806 26.5751 4.90289C25.7807 4.51772 24.9091 4.3181 24.0263 4.3191C23.1378 4.31888 22.2608 4.51945 21.4608 4.90583C20.6608 5.2922 19.9585 5.85437 19.4063 6.55035C17.9552 6.62189 16.5819 7.22724 15.5501 8.25003H6.43875C5.9925 8.25003 5.625 8.61753 5.625 9.06378V34.9857C5.625 35.4319 5.9925 35.7994 6.43875 35.7994H8.31563C8.26759 36.3462 8.24569 36.8951 8.25 37.444V42.375C8.25 42.7231 8.38828 43.057 8.63442 43.3031C8.88056 43.5493 9.2144 43.6875 9.5625 43.6875ZM8.75138 33.1744H8.25V10.875H14.0158C13.8767 11.379 13.8058 11.904 13.8058 12.4356C13.8098 13.0498 13.6299 13.651 13.2913 14.1628C12.7541 14.9695 12.4249 15.8967 12.3333 16.8616C12.2417 17.8265 12.3905 18.799 12.7663 19.6924C12.3926 20.5717 12.2426 21.5298 12.3296 22.4812C12.4166 23.4326 12.738 24.3477 13.2651 25.1445C11.0598 27.3623 9.50044 30.1379 8.75138 33.1744ZM34.0118 10.875H39.7369V33.1744H39.2316C38.4859 30.144 36.9323 27.3725 34.7363 25.155C35.2646 24.3597 35.5879 23.446 35.6772 22.4953C35.7665 21.5446 35.6191 20.5867 35.2481 19.7068C35.6285 18.8092 35.7804 17.8313 35.6902 16.8605C35.5999 15.8898 35.2704 14.9566 34.731 14.1445C34.3907 13.6303 34.2124 13.0259 34.2191 12.4093C34.218 11.8906 34.1483 11.3755 34.0118 10.875ZM31.4156 35.403V33.975L31.4419 33.9737C31.8015 33.9737 32.0981 34.2703 32.0981 34.63V41.0625H27.1106C27.196 40.9984 27.2645 40.9144 27.3101 40.8178C27.3557 40.7213 27.377 40.615 27.3722 40.5083C27.3675 40.4016 27.3367 40.2977 27.2826 40.2056C27.2286 40.1135 27.1529 40.0359 27.0621 39.9797C27.0192 39.9525 26.9842 39.9146 26.9604 39.8697C26.9367 39.8248 26.9252 39.7745 26.9269 39.7238C26.9269 39.6214 26.9833 39.519 27.0752 39.4613C27.168 39.401 27.2441 39.3182 27.2963 39.2206C27.3486 39.123 27.3753 39.0138 27.374 38.9031C27.3727 38.7925 27.3434 38.6839 27.2888 38.5876C27.2343 38.4913 27.1563 38.4103 27.0621 38.3522C27.0192 38.325 26.9842 38.2871 26.9604 38.2422C26.9367 38.1973 26.9252 38.147 26.9269 38.0963C26.9269 37.9939 26.9833 37.8915 27.0752 37.8338C27.1665 37.7745 27.2416 37.6934 27.2937 37.5979C27.3459 37.5024 27.3734 37.3954 27.374 37.2866C27.3745 37.1777 27.3479 37.0705 27.2967 36.9745C27.2455 36.8785 27.1711 36.7967 27.0804 36.7365C27.0326 36.7065 26.9933 36.6646 26.9664 36.6149C26.9395 36.5653 26.9259 36.5095 26.9269 36.453V36.4452C26.9308 36.2877 27.0752 36.1275 27.2813 36.1275C27.3253 36.1276 27.3693 36.1232 27.4125 36.1144H30.762C30.8528 36.1144 30.9426 36.0955 31.0257 36.0589C31.1089 36.0224 31.1835 35.969 31.2449 35.9022C31.3064 35.8353 31.3533 35.7564 31.3826 35.6705C31.412 35.5846 31.4233 35.4935 31.4156 35.403ZM33.4106 41.0625V34.6313C33.4106 33.5472 32.526 32.6625 31.4419 32.6625H31.4235V30.3578H31.4156V30.3132C31.4156 29.7225 30.9431 29.25 30.3525 29.25H28.4848L28.2144 29.0112C28.0044 28.8195 28.1488 28.473 28.4664 28.473H29.8538C30.132 28.473 30.3171 28.2092 30.1976 27.9808L28.5701 24.8637L28.6528 24.802C30.6859 25.5321 32.5192 26.7293 34.0052 28.2972C36.0504 30.904 37.1445 34.1308 37.1066 37.444V41.0625H33.4106ZM26.6946 29.25H21.1821V27.1697C21.4775 27.6242 21.8787 28.0003 22.3513 28.2659C22.8239 28.5314 23.3538 28.6785 23.8957 28.6945C24.4376 28.7105 24.9752 28.595 25.4627 28.3577C25.9501 28.1205 26.3728 27.7687 26.6946 27.3325V29.25ZM19.3918 29.25H19.0112C17.6331 29.2369 16.5306 30.3525 16.5306 31.7175V32.6625C16.0279 32.6599 15.5514 32.8988 15.2102 33.223C15.0146 33.4025 14.8576 33.6199 14.7486 33.862C14.6397 34.1041 14.581 34.3658 14.5763 34.6313V41.0625H10.8698L10.8632 37.4387C10.8277 34.2455 11.8443 31.1294 13.7559 28.5715C15.2767 26.8793 17.192 25.589 19.3314 24.8151L17.679 27.9822C17.5609 28.2092 17.7446 28.4717 18.0229 28.4717H19.4115C19.7278 28.4717 19.8735 28.8195 19.6622 29.0098L19.3918 29.25ZM23.9987 27.3837C23.5911 27.3844 23.1925 27.2631 22.8543 27.0356C22.5161 26.808 22.2537 26.4845 22.1008 26.1066C22.8046 26.28 23.5289 26.3559 24.2533 26.3323C24.804 26.3171 25.3517 26.2445 25.8874 26.1158C25.7333 26.49 25.4718 26.8101 25.1359 27.0358C24.7999 27.2614 24.4047 27.3825 24 27.3837M16.545 33.975V35.4844H16.5555C16.5623 35.6539 16.6344 35.8141 16.7568 35.9316C16.8791 36.049 17.0422 36.1145 17.2118 36.1144H20.5757C20.6177 36.1223 20.6623 36.1275 20.7069 36.1275C20.913 36.1275 21.0574 36.2877 21.0613 36.4452V36.453C21.0623 36.5095 21.0487 36.5653 21.0218 36.6149C20.9949 36.6646 20.9556 36.7065 20.9078 36.7365C20.8174 36.7968 20.7434 36.8786 20.6925 36.9746C20.6416 37.0705 20.6152 37.1776 20.6159 37.2863C20.6165 37.3949 20.6441 37.5017 20.6962 37.597C20.7483 37.6923 20.8232 37.7732 20.9143 37.8325C20.9584 37.8609 20.9948 37.8997 21.0204 37.9455C21.046 37.9912 21.0601 38.0425 21.0613 38.095C21.0613 38.2131 21.0049 38.3023 20.9261 38.3522C20.8322 38.4104 20.7544 38.4913 20.7001 38.5875C20.6457 38.6837 20.6166 38.792 20.6152 38.9025C20.6139 39.013 20.6405 39.122 20.6926 39.2194C20.7446 39.3169 20.8205 39.3996 20.913 39.46C20.9573 39.4883 20.994 39.527 21.0198 39.5728C21.0457 39.6185 21.0599 39.6699 21.0613 39.7225C21.0613 39.8406 21.0049 39.9298 20.9261 39.9797C20.8353 40.0359 20.7596 40.1135 20.7055 40.2056C20.6515 40.2977 20.6207 40.4016 20.616 40.5083C20.6112 40.615 20.6325 40.7213 20.6781 40.8178C20.7237 40.9144 20.7922 40.9984 20.8776 41.0625H15.8901V34.6313C15.8901 34.4869 15.9623 34.3202 16.1145 34.1758C16.2251 34.0603 16.3739 33.9889 16.5332 33.975H16.545ZM18.8826 32.6625C18.5797 32.6625 18.2893 32.5422 18.0751 32.3281C17.861 32.1139 17.7407 31.8235 17.7407 31.5207C17.7407 31.2178 17.861 30.9274 18.0751 30.7132C18.2893 30.4991 18.5797 30.3788 18.8826 30.3788H30.1123V32.6625H18.8826ZM19.6005 12.6115C19.9208 12.3267 20.2436 11.9683 20.4589 11.551C21.0162 12.2254 21.7155 12.7685 22.5068 13.1417C23.2981 13.5149 24.162 13.709 25.0369 13.71H26.6368C26.5802 13.7174 26.5237 13.7261 26.4675 13.7363C26.2575 13.7757 26.1263 13.9725 26.1656 14.1694C26.205 14.3794 26.4019 14.5107 26.5988 14.4713C27.6186 14.2915 28.5413 14.7469 28.7001 14.827L28.725 14.8388C28.7775 14.8782 28.8431 14.8913 28.9088 14.8913C29.04 14.8913 29.1581 14.8257 29.2238 14.6944C29.2496 14.6524 29.2667 14.6056 29.2741 14.5569C29.2814 14.5081 29.2789 14.4584 29.2667 14.4106C29.2544 14.3629 29.2327 14.3181 29.2028 14.2789C29.1729 14.2397 29.1354 14.2069 29.0925 14.1825C29.0649 14.1642 28.4363 13.815 27.5753 13.71H29.4338C29.603 13.7187 29.7662 13.7761 29.9036 13.8754C30.0572 13.9909 30.2961 14.256 30.3118 14.9464C30.2948 14.9446 30.2777 14.9437 30.2606 14.9438H25.7063C25.3125 14.9438 24.945 15.1275 24.6956 15.4294C24.6155 15.5295 24.5135 15.61 24.3975 15.6646C24.2815 15.7192 24.1545 15.7465 24.0263 15.7444C23.898 15.7465 23.771 15.7192 23.655 15.6646C23.539 15.61 23.437 15.5295 23.3569 15.4294C23.1075 15.1275 22.74 14.9438 22.3463 14.9438H17.7656C17.7459 14.9438 17.7261 14.9452 17.7066 14.9477L17.7 14.806C17.7131 14.2967 17.8641 13.983 18.0111 13.7875C18.1659 13.5814 18.3458 13.4685 18.4586 13.4068C18.8051 13.2205 19.2212 12.9475 19.6005 12.6115ZM17.3194 15.6762V15.6788C17.3194 15.8232 17.385 15.9413 17.49 16.02C17.5425 16.0594 17.5819 16.125 17.5819 16.1907V17.6344C17.5819 17.9533 17.6423 18.2592 17.7512 18.54L17.4362 18.4324C17.1551 18.3349 16.9099 18.1551 16.7323 17.9165C16.5548 17.6778 16.4531 17.3912 16.4405 17.094C16.4279 16.7968 16.505 16.5027 16.6617 16.2498C16.8184 15.997 17.0476 15.7971 17.3194 15.6762ZM17.868 18.7973C18.08 19.2028 18.3991 19.5425 18.7906 19.7795C19.1822 20.0164 19.6311 20.1416 20.0888 20.1413H21.0206C21.7031 20.1413 22.3253 19.867 22.7794 19.4207C22.7673 19.5227 22.777 19.626 22.8078 19.724C22.8386 19.8219 22.8897 19.9123 22.9579 19.989C23.0261 20.0657 23.1098 20.1272 23.2034 20.1693C23.2971 20.2114 23.3986 20.2331 23.5013 20.2332H24.5381C24.6397 20.2333 24.7401 20.2121 24.833 20.1711C24.9258 20.13 25.0091 20.07 25.0773 19.9948C25.1456 19.9196 25.1973 19.831 25.2292 19.7346C25.2611 19.6382 25.2725 19.5362 25.2626 19.4352C25.7292 19.889 26.3547 20.1424 27.0056 20.1413H27.9375C28.9061 20.1413 29.7396 19.5953 30.1583 18.7986L30.1425 19.17C30.069 21.001 29.3025 22.5143 28.1213 23.5433L28.095 23.5656C27.0174 24.4896 25.5894 25.0225 24.0131 25.0225C22.4355 25.0225 21.0075 24.4883 19.9313 23.5643L19.905 23.542C18.7224 22.513 17.9573 20.9997 17.8838 19.1687L17.868 18.7973ZM24.4988 16.9624C24.455 16.8707 24.3861 16.7933 24.3002 16.7391C24.2143 16.6849 24.1147 16.6561 24.0131 16.6561C23.9115 16.6561 23.812 16.6849 23.7261 16.7391C23.6401 16.7933 23.5713 16.8707 23.5275 16.9624V16.8338C23.5406 16.5713 23.7506 16.3744 24.0131 16.3744C24.2756 16.3744 24.4856 16.5844 24.4988 16.8469V16.9624ZM30.2856 18.5151C30.3879 18.2408 30.4444 17.9442 30.4444 17.6344V16.1775C30.4444 16.1119 30.4706 16.0463 30.5231 16.0069C30.6147 15.9365 30.6746 15.8327 30.6898 15.7182C30.9396 15.8498 31.1467 16.05 31.2866 16.2953C31.4265 16.5405 31.4935 16.8206 31.4798 17.1027C31.466 17.3847 31.372 17.6569 31.2088 17.8874C31.0456 18.1178 30.82 18.2969 30.5586 18.4035L30.2856 18.5151ZM20.9288 19.6688H20.2069C19.0125 19.6688 18.0413 18.6975 18.0413 17.5032V16.5582C18.0413 15.915 18.5531 15.4032 19.1963 15.4032H21.9263C22.5694 15.4032 23.0813 15.915 23.0813 16.5582V17.5032H23.0944C23.0944 18.6975 22.1231 19.6688 20.9288 19.6688ZM27.8588 19.6688H27.1369C25.9425 19.6688 24.9713 18.6975 24.9713 17.5032V16.5582C24.9713 15.915 25.4831 15.4032 26.1263 15.4032H28.8694C29.5125 15.4032 30.0244 15.915 30.0244 16.5582V17.5032C30.0244 18.6975 29.0531 19.6688 27.8588 19.6688Z" fill="black"/>
</svg>
