<svg width="50" height="50" viewBox="0 0 50 50" fill="none" xmlns="http://www.w3.org/2000/svg">
<g clip-path="url(#clip0_517_33)">
<path d="M42.875 6.125H7.125C6.26305 6.125 5.4364 6.46741 4.8269 7.0769C4.21741 7.6864 3.875 8.51305 3.875 9.375V38.625C3.875 39.487 4.21741 40.3136 4.8269 40.9231C5.4364 41.5326 6.26305 41.875 7.125 41.875H9.84484C10.1524 41.8751 10.4536 41.7879 10.7136 41.6236C10.9736 41.4593 11.1816 41.2246 11.3134 40.9467C12.1036 39.2784 13.3512 37.8687 14.9111 36.8815C16.4709 35.8944 18.279 35.3703 20.125 35.3703C21.971 35.3703 23.7791 35.8944 25.3389 36.8815C26.8988 37.8687 28.1464 39.2784 28.9366 40.9467C29.0684 41.2246 29.2764 41.4593 29.5364 41.6236C29.7964 41.7879 30.0976 41.8751 30.4052 41.875H42.875C43.737 41.875 44.5636 41.5326 45.1731 40.9231C45.7826 40.3136 46.125 39.487 46.125 38.625V9.375C46.125 8.51305 45.7826 7.6864 45.1731 7.0769C44.5636 6.46741 43.737 6.125 42.875 6.125ZM20.125 32.125C18.8394 32.125 17.5827 31.7438 16.5138 31.0296C15.4449 30.3153 14.6118 29.3002 14.1198 28.1124C13.6278 26.9247 13.4991 25.6178 13.7499 24.3569C14.0007 23.096 14.6198 21.9378 15.5288 21.0288C16.4378 20.1198 17.596 19.5007 18.8569 19.2499C20.1178 18.9991 21.4247 19.1278 22.6124 19.6198C23.8002 20.1118 24.8153 20.9449 25.5296 22.0138C26.2438 23.0827 26.625 24.3394 26.625 25.625C26.625 27.3489 25.9402 29.0022 24.7212 30.2212C23.5022 31.4402 21.8489 32.125 20.125 32.125ZM42.875 38.625H31.3842C30.6758 37.4035 29.7729 36.3058 28.7111 35.375H38C38.431 35.375 38.8443 35.2038 39.149 34.899C39.4538 34.5943 39.625 34.181 39.625 33.75V14.25C39.625 13.819 39.4538 13.4057 39.149 13.101C38.8443 12.7962 38.431 12.625 38 12.625H12C11.569 12.625 11.1557 12.7962 10.851 13.101C10.5462 13.4057 10.375 13.819 10.375 14.25V33.75C10.3748 34.1104 10.4944 34.4606 10.7151 34.7456C10.9357 35.0306 11.2448 35.2341 11.5938 35.3242C10.5075 36.2654 9.58553 37.3809 8.86578 38.625H7.125V9.375H42.875V38.625Z" fill="black"/>
</g>
<defs>
<clipPath id="clip0_517_33">
<rect width="50" height="50" fill="white"/>
</clipPath>
</defs>
</svg>
