<svg width="42" height="42" viewBox="0 0 42 42" fill="none" xmlns="http://www.w3.org/2000/svg">
<path d="M26.211 8.39985C24.7609 6.85225 22.7355 6 20.5 6C18.2526 6 16.2205 6.84709 14.7771 8.38512C13.318 9.94009 12.6071 12.0534 12.7741 14.3354C13.1049 18.8375 16.5707 22.4999 20.5 22.4999C24.4293 22.4999 27.8891 18.8383 28.2252 14.3369C28.3944 12.0755 27.679 9.96661 26.211 8.39985ZM33.615 38.9998H7.38498C7.04165 39.0042 6.70164 38.9329 6.3897 38.7911C6.07775 38.6493 5.80171 38.4405 5.58166 38.18C5.0973 37.6076 4.90206 36.8261 5.04663 36.0357C5.67555 32.5869 7.63833 29.6899 10.7233 27.6561C13.4641 25.8507 16.9358 24.857 20.5 24.857C24.0642 24.857 27.5359 25.8514 30.2767 27.6561C33.3617 29.6891 35.3244 32.5862 35.9534 36.035C36.0979 36.8254 35.9027 37.6069 35.4183 38.1792C35.1984 38.4399 34.9224 38.6488 34.6104 38.7908C34.2985 38.9327 33.9584 39.0041 33.615 38.9998Z" fill="black"/>
</svg>
