<svg width="74" height="63" viewBox="0 0 74 63" fill="none" xmlns="http://www.w3.org/2000/svg">
<rect x="1" y="-1" width="72" height="61" rx="11" transform="matrix(-1 0 0 1 74 2)" fill="black" stroke="black" stroke-width="2"/>
<path d="M37.9588 39.1662L43.7763 45L37.9425 50.8337L40.25 53.125L48.375 45L40.25 36.875L37.9588 39.1662ZM49.3338 39.1662L55.1513 45L49.3175 50.8337L51.625 53.125L59.75 45L51.625 36.875L49.3338 39.1662Z" fill="white"/>
<path d="M33.75 43.375H17.5V18.8537L36.0737 31.7075C36.3458 31.8962 36.6689 31.9973 37 31.9973C37.3311 31.9973 37.6542 31.8962 37.9263 31.7075L56.5 18.8537V33.625H59.75V17.375C59.75 16.513 59.4076 15.6864 58.7981 15.0769C58.1886 14.4674 57.362 14.125 56.5 14.125H17.5C16.638 14.125 15.8114 14.4674 15.2019 15.0769C14.5924 15.6864 14.25 16.513 14.25 17.375V43.375C14.25 44.237 14.5924 45.0636 15.2019 45.6731C15.8114 46.2826 16.638 46.625 17.5 46.625H33.75V43.375ZM52.925 17.375L37 28.3925L21.075 17.375H52.925Z" fill="white"/>
</svg>
